<svg width="36" height="36" viewBox="0 0 36 36" fill="none" xmlns="http://www.w3.org/2000/svg">
<g clip-path="url(#clip0_3160_184)">
<path d="M28.5547 3.09902L21.694 9.95968L21.694 -0.309581L15.5473 -0.30958L15.5473 11.2014L7.44493 3.09902L3.09881 7.44514L9.75148 14.0978L0.342127 14.0978L0.343678 20.2429L11.403 20.2507L3.09881 28.5549L7.44493 32.901L15.5473 24.7986L15.5473 35.6887L21.694 35.6887L21.694 26.0403L28.5547 32.901L32.9008 28.5549L24.5966 20.2507L36.3497 20.2507L36.3497 14.104L26.2481 14.0978L32.9008 7.44514L28.5547 3.09902Z" fill="white"/>
<path d="M21.6846 14.1034L43.454 14.1034L21.6846 -4.4895L21.6846 14.1034Z" fill="#000000"/>
</g>
<defs>
<clipPath id="clip0_3160_184">
<rect width="36" height="36" fill="white"/>
</clipPath>
</defs>
</svg>
